<svg xmlns="http://www.w3.org/2000/svg" width="24" height="24" viewBox="0 0 24 24" fill="none" stroke="currentColor" stroke-width="1.5" stroke-linecap="round" stroke-linejoin="round">
  <path d="M10.5 2h3a1 1 0 0 1 1 1v2h2a2 2 0 0 1 2 2v13a2 2 0 0 1-2 2h-9a2 2 0 0 1-2-2V7a2 2 0 0 1 2-2h2V3a1 1 0 0 1 1-1z"/>
  <line x1="9" y1="10" x2="15" y2="10"/>
  <line x1="9" y1="13" x2="15" y2="13"/>
  <line x1="9" y1="16" x2="13" y2="16"/>
  <circle cx="17" cy="18" r="4" fill="currentColor" opacity="0.15" stroke="none"/>
  <path d="M15.5 18h3M17 16.5v3" stroke-width="1.2"/>
</svg>
